<mxfile host="65bd71144e">
    <diagram id="shop-page-layout" name="ShopPage">
        <mxGraphModel dx="1254" dy="1169" grid="1" gridSize="10" guides="1" tooltips="1" connect="1" arrows="1" fold="1" page="1" pageScale="1" pageWidth="1200" pageHeight="800" background="#1a1a2e" math="0" shadow="0">
            <root>
                <mxCell id="0"/>
                <mxCell id="1" parent="0"/>
                <!-- 背景コンテナ -->
                <mxCell id="bg-container" value="" style="rounded=0;whiteSpace=wrap;html=1;fillColor=#0f0f1e;strokeColor=#2d2d44;" parent="1" vertex="1">
                    <mxGeometry x="0" y="0" width="1200" height="800" as="geometry"/>
                </mxCell>
                <!-- ヘッダー -->
                <mxCell id="header-bg" value="" style="rounded=0;whiteSpace=wrap;html=1;fillColor=#1e1e30;strokeColor=#2d2d44;" parent="1" vertex="1">
                    <mxGeometry x="0" y="0" width="1200" height="100" as="geometry"/>
                </mxCell>
                <mxCell id="page-title" value="アイテムショップ" style="text;html=1;strokeColor=none;fillColor=none;align=center;verticalAlign=middle;whiteSpace=wrap;rounded=0;fontSize=36;fontColor=#ffd700;fontStyle=1;" parent="1" vertex="1">
                    <mxGeometry x="450" y="30" width="300" height="40" as="geometry"/>
                </mxCell>
                <mxCell id="back-btn" value="← メニューに戻る" style="rounded=1;whiteSpace=wrap;html=1;fillColor=#5c5c7e;strokeColor=#4c4c6e;fontSize=14;fontColor=#ffffff;" parent="1" vertex="1">
                    <mxGeometry x="20" y="30" width="140" height="40" as="geometry"/>
                </mxCell>
                <!-- ユーザー情報 -->
                <mxCell id="user-info-container" value="" style="rounded=1;whiteSpace=wrap;html=1;fillColor=#2a2a3e;strokeColor=#3d3d55;" parent="1" vertex="1">
                    <mxGeometry x="850" y="20" width="330" height="60" as="geometry"/>
                </mxCell>
                <mxCell id="user-name" value="Player123" style="text;html=1;strokeColor=none;fillColor=none;align=left;verticalAlign=middle;whiteSpace=wrap;rounded=0;fontSize=14;fontColor=#ffffff;" parent="1" vertex="1">
                    <mxGeometry x="860" y="25" width="150" height="20" as="geometry"/>
                </mxCell>
                <mxCell id="ap-display" value="💰 AP: 2,450" style="text;html=1;strokeColor=none;fillColor=none;align=left;verticalAlign=middle;whiteSpace=wrap;rounded=0;fontSize=16;fontColor=#90ee90;fontStyle=1;" parent="1" vertex="1">
                    <mxGeometry x="860" y="50" width="150" height="20" as="geometry"/>
                </mxCell>
                <mxCell id="tap-display" value="💎 TAP: 15,678" style="text;html=1;strokeColor=none;fillColor=none;align=right;verticalAlign=middle;whiteSpace=wrap;rounded=0;fontSize=16;fontColor=#87ceeb;fontStyle=1;" parent="1" vertex="1">
                    <mxGeometry x="1020" y="50" width="150" height="20" as="geometry"/>
                </mxCell>
                <!-- メインコンテナ -->
                <mxCell id="main-container" value="" style="rounded=0;whiteSpace=wrap;html=1;fillColor=none;strokeColor=none;" parent="1" vertex="1">
                    <mxGeometry x="40" y="120" width="1120" height="640" as="geometry"/>
                </mxCell>
                <!-- アイテムリストエリア -->
                <mxCell id="items-scroll-area" value="" style="rounded=1;whiteSpace=wrap;html=1;fillColor=#1e1e30;strokeColor=#2d2d44;" parent="1" vertex="1">
                    <mxGeometry x="60" y="140" width="800" height="600" as="geometry"/>
                </mxCell>
                <mxCell id="items-container" value="" style="rounded=0;whiteSpace=wrap;html=1;fillColor=none;strokeColor=none;" parent="1" vertex="1">
                    <mxGeometry x="80" y="160" width="760" height="560" as="geometry"/>
                </mxCell>
                <!-- アイテムカード1：スコア倍率アップ -->
                <mxCell id="item-1" value="" style="rounded=1;whiteSpace=wrap;html=1;fillColor=#3498db;strokeColor=#2980b9;shadow=1;" parent="1" vertex="1">
                    <mxGeometry x="100" y="180" width="720" height="80" as="geometry"/>
                </mxCell>
                <mxCell id="item-1-icon" value="📈" style="text;html=1;strokeColor=none;fillColor=none;align=center;verticalAlign=middle;whiteSpace=wrap;rounded=0;fontSize=32;" parent="1" vertex="1">
                    <mxGeometry x="110" y="195" width="50" height="50" as="geometry"/>
                </mxCell>
                <mxCell id="item-1-name" value="スコア倍率アップ" style="text;html=1;strokeColor=none;fillColor=none;align=left;verticalAlign=middle;whiteSpace=wrap;rounded=0;fontSize=18;fontColor=#ffffff;fontStyle=1;" parent="1" vertex="1">
                    <mxGeometry x="170" y="190" width="200" height="25" as="geometry"/>
                </mxCell>
                <mxCell id="item-1-desc" value="獲得スコアが1.5倍になります" style="text;html=1;strokeColor=none;fillColor=none;align=left;verticalAlign=middle;whiteSpace=wrap;rounded=0;fontSize=14;fontColor=#cccccc;" parent="1" vertex="1">
                    <mxGeometry x="170" y="215" width="300" height="20" as="geometry"/>
                </mxCell>
                <mxCell id="item-1-level" value="Lv.2/5" style="text;html=1;strokeColor=none;fillColor=none;align=center;verticalAlign=middle;whiteSpace=wrap;rounded=0;fontSize=14;fontColor=#ffd700;" parent="1" vertex="1">
                    <mxGeometry x="170" y="235" width="60" height="20" as="geometry"/>
                </mxCell>
                <mxCell id="item-1-cost" value="500 AP" style="rounded=1;whiteSpace=wrap;html=1;fillColor=#2ecc71;strokeColor=#27ae60;fontSize=16;fontColor=#ffffff;fontStyle=1;" parent="1" vertex="1">
                    <mxGeometry x="680" y="200" width="120" height="40" as="geometry"/>
                </mxCell>
                <!-- アイテムカード2：復活 -->
                <mxCell id="item-2" value="" style="rounded=1;whiteSpace=wrap;html=1;fillColor=#3498db;strokeColor=#2980b9;shadow=1;" parent="1" vertex="1">
                    <mxGeometry x="100" y="270" width="720" height="80" as="geometry"/>
                </mxCell>
                <mxCell id="item-2-icon" value="💖" style="text;html=1;strokeColor=none;fillColor=none;align=center;verticalAlign=middle;whiteSpace=wrap;rounded=0;fontSize=32;" parent="1" vertex="1">
                    <mxGeometry x="110" y="285" width="50" height="50" as="geometry"/>
                </mxCell>
                <mxCell id="item-2-name" value="復活" style="text;html=1;strokeColor=none;fillColor=none;align=left;verticalAlign=middle;whiteSpace=wrap;rounded=0;fontSize=18;fontColor=#ffffff;fontStyle=1;" parent="1" vertex="1">
                    <mxGeometry x="170" y="280" width="200" height="25" as="geometry"/>
                </mxCell>
                <mxCell id="item-2-desc" value="HP0になった時、1回だけHP50%で復活" style="text;html=1;strokeColor=none;fillColor=none;align=left;verticalAlign=middle;whiteSpace=wrap;rounded=0;fontSize=14;fontColor=#cccccc;" parent="1" vertex="1">
                    <mxGeometry x="170" y="305" width="300" height="20" as="geometry"/>
                </mxCell>
                <mxCell id="item-2-level" value="Lv.1/3" style="text;html=1;strokeColor=none;fillColor=none;align=center;verticalAlign=middle;whiteSpace=wrap;rounded=0;fontSize=14;fontColor=#ffd700;" parent="1" vertex="1">
                    <mxGeometry x="170" y="325" width="60" height="20" as="geometry"/>
                </mxCell>
                <mxCell id="item-2-cost" value="1,000 AP" style="rounded=1;whiteSpace=wrap;html=1;fillColor=#2ecc71;strokeColor=#27ae60;fontSize=16;fontColor=#ffffff;fontStyle=1;" parent="1" vertex="1">
                    <mxGeometry x="680" y="290" width="120" height="40" as="geometry"/>
                </mxCell>
                <!-- アイテムカード3：レア率アップ -->
                <mxCell id="item-3" value="" style="rounded=1;whiteSpace=wrap;html=1;fillColor=#f39c12;strokeColor=#e67e22;shadow=1;" parent="1" vertex="1">
                    <mxGeometry x="100" y="360" width="720" height="80" as="geometry"/>
                </mxCell>
                <mxCell id="item-3-icon" value="✨" style="text;html=1;strokeColor=none;fillColor=none;align=center;verticalAlign=middle;whiteSpace=wrap;rounded=0;fontSize=32;" parent="1" vertex="1">
                    <mxGeometry x="110" y="375" width="50" height="50" as="geometry"/>
                </mxCell>
                <mxCell id="item-3-name" value="レア率アップ" style="text;html=1;strokeColor=none;fillColor=none;align=left;verticalAlign=middle;whiteSpace=wrap;rounded=0;fontSize=18;fontColor=#ffffff;fontStyle=1;" parent="1" vertex="1">
                    <mxGeometry x="170" y="370" width="200" height="25" as="geometry"/>
                </mxCell>
                <mxCell id="item-3-desc" value="レア泡の出現率が20%アップ" style="text;html=1;strokeColor=none;fillColor=none;align=left;verticalAlign=middle;whiteSpace=wrap;rounded=0;fontSize=14;fontColor=#cccccc;" parent="1" vertex="1">
                    <mxGeometry x="170" y="395" width="300" height="20" as="geometry"/>
                </mxCell>
                <mxCell id="item-3-level" value="Lv.0/5" style="text;html=1;strokeColor=none;fillColor=none;align=center;verticalAlign=middle;whiteSpace=wrap;rounded=0;fontSize=14;fontColor=#ffd700;" parent="1" vertex="1">
                    <mxGeometry x="170" y="415" width="60" height="20" as="geometry"/>
                </mxCell>
                <mxCell id="item-3-cost" value="3,000 AP" style="rounded=1;whiteSpace=wrap;html=1;fillColor=#e74c3c;strokeColor=#c0392b;fontSize=16;fontColor=#ffffff;fontStyle=1;" parent="1" vertex="1">
                    <mxGeometry x="680" y="380" width="120" height="40" as="geometry"/>
                </mxCell>
                <mxCell id="item-3-insufficient" value="AP不足" style="text;html=1;strokeColor=none;fillColor=none;align=center;verticalAlign=middle;whiteSpace=wrap;rounded=0;fontSize=12;fontColor=#ff6b6b;" parent="1" vertex="1">
                    <mxGeometry x="680" y="420" width="120" height="15" as="geometry"/>
                </mxCell>
                <!-- アイテムカード4：HP増加（最大レベル） -->
                <mxCell id="item-4" value="" style="rounded=1;whiteSpace=wrap;html=1;fillColor=#555577;strokeColor=#444466;shadow=1;opacity=70;" parent="1" vertex="1">
                    <mxGeometry x="100" y="450" width="720" height="80" as="geometry"/>
                </mxCell>
                <mxCell id="item-4-icon" value="❤️" style="text;html=1;strokeColor=none;fillColor=none;align=center;verticalAlign=middle;whiteSpace=wrap;rounded=0;fontSize=32;opacity=70;" parent="1" vertex="1">
                    <mxGeometry x="110" y="465" width="50" height="50" as="geometry"/>
                </mxCell>
                <mxCell id="item-4-name" value="HP増加" style="text;html=1;strokeColor=none;fillColor=none;align=left;verticalAlign=middle;whiteSpace=wrap;rounded=0;fontSize=18;fontColor=#888888;fontStyle=1;" parent="1" vertex="1">
                    <mxGeometry x="170" y="460" width="200" height="25" as="geometry"/>
                </mxCell>
                <mxCell id="item-4-desc" value="最大HPが150になります" style="text;html=1;strokeColor=none;fillColor=none;align=left;verticalAlign=middle;whiteSpace=wrap;rounded=0;fontSize=14;fontColor=#666666;" parent="1" vertex="1">
                    <mxGeometry x="170" y="485" width="300" height="20" as="geometry"/>
                </mxCell>
                <mxCell id="item-4-level" value="Lv.MAX" style="text;html=1;strokeColor=none;fillColor=none;align=center;verticalAlign=middle;whiteSpace=wrap;rounded=0;fontSize=14;fontColor=#888888;fontStyle=1;" parent="1" vertex="1">
                    <mxGeometry x="170" y="505" width="60" height="20" as="geometry"/>
                </mxCell>
                <mxCell id="item-4-maxed" value="最大レベル" style="rounded=1;whiteSpace=wrap;html=1;fillColor=#333344;strokeColor=#222233;fontSize=16;fontColor=#888888;" parent="1" vertex="1">
                    <mxGeometry x="680" y="470" width="120" height="40" as="geometry"/>
                </mxCell>
                <!-- アイテムカード5：コンボ強化 -->
                <mxCell id="item-5" value="" style="rounded=1;whiteSpace=wrap;html=1;fillColor=#3498db;strokeColor=#2980b9;shadow=1;" parent="1" vertex="1">
                    <mxGeometry x="100" y="540" width="720" height="80" as="geometry"/>
                </mxCell>
                <mxCell id="item-5-icon" value="🔥" style="text;html=1;strokeColor=none;fillColor=none;align=center;verticalAlign=middle;whiteSpace=wrap;rounded=0;fontSize=32;" parent="1" vertex="1">
                    <mxGeometry x="110" y="555" width="50" height="50" as="geometry"/>
                </mxCell>
                <mxCell id="item-5-name" value="コンボ強化" style="text;html=1;strokeColor=none;fillColor=none;align=left;verticalAlign=middle;whiteSpace=wrap;rounded=0;fontSize=18;fontColor=#ffffff;fontStyle=1;" parent="1" vertex="1">
                    <mxGeometry x="170" y="550" width="200" height="25" as="geometry"/>
                </mxCell>
                <mxCell id="item-5-desc" value="コンボボーナスが2倍になります" style="text;html=1;strokeColor=none;fillColor=none;align=left;verticalAlign=middle;whiteSpace=wrap;rounded=0;fontSize=14;fontColor=#cccccc;" parent="1" vertex="1">
                    <mxGeometry x="170" y="575" width="300" height="20" as="geometry"/>
                </mxCell>
                <mxCell id="item-5-level" value="Lv.3/10" style="text;html=1;strokeColor=none;fillColor=none;align=center;verticalAlign=middle;whiteSpace=wrap;rounded=0;fontSize=14;fontColor=#ffd700;" parent="1" vertex="1">
                    <mxGeometry x="170" y="595" width="60" height="20" as="geometry"/>
                </mxCell>
                <mxCell id="item-5-cost" value="750 AP" style="rounded=1;whiteSpace=wrap;html=1;fillColor=#2ecc71;strokeColor=#27ae60;fontSize=16;fontColor=#ffffff;fontStyle=1;" parent="1" vertex="1">
                    <mxGeometry x="680" y="560" width="120" height="40" as="geometry"/>
                </mxCell>
                <!-- アイテムカード6：リセット -->
                <mxCell id="item-6" value="" style="rounded=1;whiteSpace=wrap;html=1;fillColor=#95a5a6;strokeColor=#7f8c8d;shadow=1;" parent="1" vertex="1">
                    <mxGeometry x="100" y="630" width="720" height="80" as="geometry"/>
                </mxCell>
                <mxCell id="item-6-icon" value="🔄" style="text;html=1;strokeColor=none;fillColor=none;align=center;verticalAlign=middle;whiteSpace=wrap;rounded=0;fontSize=32;" parent="1" vertex="1">
                    <mxGeometry x="110" y="645" width="50" height="50" as="geometry"/>
                </mxCell>
                <mxCell id="item-6-name" value="アイテム効果リセット" style="text;html=1;strokeColor=none;fillColor=none;align=left;verticalAlign=middle;whiteSpace=wrap;rounded=0;fontSize=18;fontColor=#ffffff;fontStyle=1;" parent="1" vertex="1">
                    <mxGeometry x="170" y="640" width="200" height="25" as="geometry"/>
                </mxCell>
                <mxCell id="item-6-desc" value="全アイテムをレベル0に戻し、APを返還" style="text;html=1;strokeColor=none;fillColor=none;align=left;verticalAlign=middle;whiteSpace=wrap;rounded=0;fontSize=14;fontColor=#cccccc;" parent="1" vertex="1">
                    <mxGeometry x="170" y="665" width="300" height="20" as="geometry"/>
                </mxCell>
                <mxCell id="item-6-cost" value="0 AP" style="rounded=1;whiteSpace=wrap;html=1;fillColor=#dc3545;strokeColor=#b02a37;fontSize=16;fontColor=#ffffff;fontStyle=1;" parent="1" vertex="1">
                    <mxGeometry x="680" y="650" width="120" height="40" as="geometry"/>
                </mxCell>
                <!-- スクロールバー -->
                <mxCell id="scrollbar" value="" style="rounded=1;whiteSpace=wrap;html=1;fillColor=#444455;strokeColor=#333344;" parent="1" vertex="1">
                    <mxGeometry x="830" y="180" width="10" height="520" as="geometry"/>
                </mxCell>
                <mxCell id="scrollbar-thumb" value="" style="rounded=1;whiteSpace=wrap;html=1;fillColor=#888899;strokeColor=none;" parent="1" vertex="1">
                    <mxGeometry x="830" y="180" width="10" height="100" as="geometry"/>
                </mxCell>
                <!-- 右側：操作説明 -->
                <mxCell id="help-panel" value="" style="rounded=1;whiteSpace=wrap;html=1;fillColor=#1e1e30;strokeColor=#2d2d44;" parent="1" vertex="1">
                    <mxGeometry x="880" y="140" width="280" height="600" as="geometry"/>
                </mxCell>
                <mxCell id="help-title" value="操作方法" style="text;html=1;strokeColor=none;fillColor=none;align=center;verticalAlign=middle;whiteSpace=wrap;rounded=0;fontSize=20;fontColor=#ffffff;fontStyle=1;" parent="1" vertex="1">
                    <mxGeometry x="880" y="160" width="280" height="30" as="geometry"/>
                </mxCell>
                <!-- 操作説明 -->
                <mxCell id="controls-box" value="" style="rounded=1;whiteSpace=wrap;html=1;fillColor=#2a2a3e;strokeColor=#3d3d55;" parent="1" vertex="1">
                    <mxGeometry x="900" y="210" width="240" height="200" as="geometry"/>
                </mxCell>
                <mxCell id="control-1" value="🖱️ クリック: アイテム選択" style="text;html=1;strokeColor=none;fillColor=none;align=left;verticalAlign=middle;whiteSpace=wrap;rounded=0;fontSize=14;fontColor=#cccccc;" parent="1" vertex="1">
                    <mxGeometry x="910" y="230" width="220" height="25" as="geometry"/>
                </mxCell>
                <mxCell id="control-2" value="⌨️ ↑↓: アイテム選択" style="text;html=1;strokeColor=none;fillColor=none;align=left;verticalAlign=middle;whiteSpace=wrap;rounded=0;fontSize=14;fontColor=#cccccc;" parent="1" vertex="1">
                    <mxGeometry x="910" y="265" width="220" height="25" as="geometry"/>
                </mxCell>
                <mxCell id="control-5" value="🖱️ スクロール: リスト移動" style="text;html=1;strokeColor=none;fillColor=none;align=left;verticalAlign=middle;whiteSpace=wrap;rounded=0;fontSize=14;fontColor=#cccccc;" parent="1" vertex="1">
                    <mxGeometry x="910" y="300" width="220" height="25" as="geometry"/>
                </mxCell>
                <!-- 色説明 -->
                <mxCell id="color-guide" value="" style="rounded=1;whiteSpace=wrap;html=1;fillColor=#2a2a3e;strokeColor=#3d3d55;" parent="1" vertex="1">
                    <mxGeometry x="900" y="430" width="240" height="180" as="geometry"/>
                </mxCell>
                <mxCell id="color-title" value="アイテム状態" style="text;html=1;strokeColor=none;fillColor=none;align=center;verticalAlign=middle;whiteSpace=wrap;rounded=0;fontSize=16;fontColor=#ffffff;fontStyle=1;" parent="1" vertex="1">
                    <mxGeometry x="900" y="440" width="240" height="25" as="geometry"/>
                </mxCell>
                <mxCell id="color-1" value="🔵 購入可能" style="text;html=1;strokeColor=none;fillColor=none;align=left;verticalAlign=middle;whiteSpace=wrap;rounded=0;fontSize=14;fontColor=#3498db;" parent="1" vertex="1">
                    <mxGeometry x="910" y="475" width="220" height="25" as="geometry"/>
                </mxCell>
                <mxCell id="color-2" value="🟠 AP不足" style="text;html=1;strokeColor=none;fillColor=none;align=left;verticalAlign=middle;whiteSpace=wrap;rounded=0;fontSize=14;fontColor=#f39c12;" parent="1" vertex="1">
                    <mxGeometry x="910" y="510" width="220" height="25" as="geometry"/>
                </mxCell>
                <mxCell id="color-3" value="⚫ 最大レベル" style="text;html=1;strokeColor=none;fillColor=none;align=left;verticalAlign=middle;whiteSpace=wrap;rounded=0;fontSize=14;fontColor=#888888;" parent="1" vertex="1">
                    <mxGeometry x="910" y="545" width="220" height="25" as="geometry"/>
                </mxCell>
            </root>
        </mxGraphModel>
    </diagram>
</mxfile>